<?xml version="1.0"?>
<svg xmlns="http://www.w3.org/2000/svg" viewBox="0 0 64 64" width="512" height="512"><g id="Brain"><path d="M59,12H51.92a7.012,7.012,0,0,0-5.538-5.862A7,7,0,0,0,33,9v3H31V9A7,7,0,0,0,17.618,6.138,7.012,7.012,0,0,0,12.08,12H5a3,3,0,0,0-3,3V47a3,3,0,0,0,3,3H26.719l-1.5,6H24a3,3,0,0,0-3,3v2a1,1,0,0,0,1,1H42a1,1,0,0,0,1-1V59a3,3,0,0,0-3-3H38.781l-1.5-6H59a3,3,0,0,0,3-3V15A3,3,0,0,0,59,12ZM35,9a4.988,4.988,0,0,1,9.036-2.926A7.006,7.006,0,0,0,38,13h2a5,5,0,0,1,4.9-4.99A5,5,0,0,1,40,14v2a7.008,7.008,0,0,0,7-7c0-.2-.013-.4-.03-.592A5,5,0,0,1,45,18v2a6.989,6.989,0,0,0,5.634-2.863A5,5,0,1,1,41,19H39a7,7,0,0,0,5.908,6.906A4.995,4.995,0,0,1,35,25ZM17.03,8.408C17.013,8.6,17,8.8,17,9a7.008,7.008,0,0,0,7,7V14a5,5,0,0,1-4.9-5.99A5,5,0,0,1,24,13h2a7.006,7.006,0,0,0-6.036-6.926A4.988,4.988,0,0,1,29,9V25a4.995,4.995,0,0,1-9.908.906A7,7,0,0,0,25,19H23a5,5,0,1,1-9.634-1.863A6.989,6.989,0,0,0,19,20V18a5,5,0,0,1-1.97-9.592ZM5,14h7.08a6.909,6.909,0,0,0,.213.992,6.956,6.956,0,0,0,4.776,10.939A7,7,0,0,0,23,31.92V34H12.816a3,3,0,1,0,0,2H24a1,1,0,0,0,1-1V31.92A7,7,0,0,0,31,25V14h2V25a7,7,0,0,0,6,6.92V35a1,1,0,0,0,1,1H51.184a3,3,0,1,0,0-2H41V31.92a7,7,0,0,0,5.931-5.989,6.956,6.956,0,0,0,4.776-10.939A6.909,6.909,0,0,0,51.92,14H59a1,1,0,0,1,1,1V40H4V15A1,1,0,0,1,5,14Zm6,21a1,1,0,1,1-1-1A1,1,0,0,1,11,35Zm42,0a1,1,0,1,1,1,1A1,1,0,0,1,53,35ZM41,59v1H23V59a1,1,0,0,1,1-1H40A1,1,0,0,1,41,59Zm-4.281-3H27.281l1.5-6h6.438ZM59,48H5a1,1,0,0,1-1-1V42H60v5A1,1,0,0,1,59,48Z"/><path d="M32,38a2.993,2.993,0,0,0,1-5.816V31H31v1.184A2.993,2.993,0,0,0,32,38Zm0-4a1,1,0,1,1-1,1A1,1,0,0,1,32,34Z"/></g></svg>
