<svg height="498pt" viewBox="-21 0 498 498.33552" width="498pt" xmlns="http://www.w3.org/2000/svg"><path d="m296.09375 72.632812c4.421875-7.652343 1.796875-17.4375-5.855469-21.859374-7.652343-4.417969-17.4375-1.796876-21.855469 5.859374-4.417968 7.652344-1.796874 17.4375 5.855469 21.855469 7.652344 4.417969 17.4375 1.796875 21.855469-5.855469zm0 0" fill="#898890"/><path d="m372.128906 368.632812h12.222656c5.542969 0 10.695313-2.871093 13.609376-7.589843 2.914062-4.714844 3.179687-10.601563.703124-15.5625l-20.425781-40.847657-20.421875 40.847657c-2.480468 4.960937-2.214844 10.847656.703125 15.5625 2.914063 4.71875 8.0625 7.589843 13.609375 7.589843zm0 0" fill="#ab2300"/><path d="m317.816406 457.480469c-2.480468 4.960937-2.214844 10.847656.703125 15.5625 2.914063 4.71875 8.0625 7.589843 13.609375 7.589843h12.222656c5.542969 0 10.695313-2.871093 13.609376-7.589843 2.914062-4.714844 3.179687-10.601563.703124-15.5625l-20.425781-40.847657zm0 0" fill="#ab2300"/><path d="m8.1875 458.375 99.996094-173.214844 55.390625 31.976563-99.996094 173.21875zm0 0" fill="#898890"/><path d="m307.519531 328.351562c-3.984375-12.050781-.605469-25.320312 8.664063-33.992187 4.28125-3.527344 6.933594-8.65625 7.335937-14.191406.054688-8.222657-5.113281-13.351563-13.007812-20.214844-8.460938-5.761719-14.394531-14.546875-16.585938-24.546875-.644531-11.324219 2.566407-22.535156 9.113281-31.796875 3.398438-5.933594 8.070313-11.035156 13.679688-14.945313l.800781-.601562c3.21875-2.28125 6.070313-5.042969 8.457031-8.191406 8.304688-11.617188 5.597657-23.664063.464844-42.398438-4.847656-14.105468-6.921875-29.011718-6.105468-43.90625 1.734374-13.816406 6.902343-26.980468 15.03125-38.285156l4.183593-6.128906 108.710938 62.832031-135.910157 235.480469zm0 0" fill="#ab2300"/><path d="m320.320312 93.589844c-.765624 14.757812 1.273438 29.523437 6 43.523437 4.71875 17.117188 8.480469 30.558594-.402343 42.796875-2.351563 3.222656-5.25 6.011719-8.558594 8.242188-5.933594 4.082031-10.882813 9.4375-14.480469 15.679687-6.449218 9.199219-9.605468 20.304688-8.960937 31.519531 2.179687 10 8.105469 18.789063 16.5625 24.558594 6.800781 5.921875 13.199219 11.441406 13.039062 20.320313-.324219 5.453125-2.902343 10.527343-7.121093 14-3.976563 3.78125-7.015626 8.4375-8.878907 13.601562-2.882812 11.167969-1.214843 23.023438 4.640625 32.960938l1.839844 3.839843-25.761719 44.558594-180.078125-104 160-277.199218 71.121094 41.121093-4.722656 7.039063c-7.691406 11.152344-12.578125 23.996094-14.238282 37.4375zm0 0" fill="#d8d7da"/><path d="m298.238281 64.632812c0 8.835938-7.164062 16-16 16-8.835937 0-16-7.164062-16-16 0-8.835937 7.164063-16 16-16 8.835938 0 16 7.164063 16 16zm0 0" fill="#898890"/><path d="m456.039062 109.9375c-.546874-2.054688-1.886718-3.804688-3.726562-4.867188l-180.144531-104c-3.828125-2.207031-8.71875-.898437-10.929688 2.929688l-260 450.335938c-2.207031 3.824218-.898437 8.71875 2.929688 10.929687l55.429687 32c3.828125 2.207031 8.71875.894531 10.929688-2.929687l96-166.28125 117.785156 68c3.824219 2.210937 8.71875.898437 10.925781-2.925782l160-277.128906c1.0625-1.835938 1.347657-4.015625.800781-6.0625zm-395.398437 369.46875-41.601563-24 92-159.351562 41.601563 24zm224.742187-101.175781-166.277343-96 152-263.261719 56.855469 32.800781c-8.46875 12.183594-13.804688 26.269531-15.539063 41.007813-.9375 15.753906 1.171875 31.539062 6.210937 46.496094 4.734376 17.109374 7.109376 27.199218.796876 36-2.019532 2.621093-4.449219 4.898437-7.199219 6.742187-6.636719 4.675781-12.175781 10.738281-16.238281 17.769531-7.46875 10.714844-10.996094 23.683594-9.984376 36.703125 2.367188 11.9375 9.246094 22.503907 19.199219 29.503907 6.59375 5.734374 10.320313 9.214843 10.28125 14.085937 0 3.050781-1.25 4.625-5.023437 8.730469-4.730469 4.628906-8.34375 10.28125-10.5625 16.519531-3.566406 13.148437-1.765625 27.179687 5.007812 39zm29.914063-51.816407c-3.433594-9.503906-.675781-20.140624 6.941406-26.78125 5.585938-4.960937 8.925781-11.972656 9.25-19.433593.101563-12.480469-8.335937-19.816407-15.777343-26.296875-6.953126-4.550782-11.90625-11.589844-13.847657-19.671875-.351562-9.46875 2.464844-18.78125 8-26.472657 2.980469-5.164062 7.082031-9.59375 12-12.964843 4.039063-2.808594 7.601563-6.25 10.542969-10.191407 11.035156-15.433593 6.449219-32 1.601562-49.601562-4.476562-13.050781-6.414062-26.835938-5.703124-40.617188 1.570312-12.46875 6.246093-24.34375 13.597656-34.535156l95.417968 55.089844zm0 0"/><path d="m303.039062 76.632812c5.429688-9.40625 3.867188-21.289062-3.8125-28.96875-7.675781-7.679687-19.558593-9.25-28.964843-3.820312-9.40625 5.425781-13.996094 16.496094-11.191407 26.988281 2.804688 10.492188 12.308594 17.792969 23.167969 17.800781 8.585938.027344 16.527344-4.554687 20.800781-12zm-13.863281-8c-1.8125 3.132813-5.5 4.664063-9 3.726563-3.496093-.9375-5.925781-4.105469-5.929687-7.726563 0-3.621093 2.433594-6.792968 5.929687-7.730468.671875-.175782 1.367188-.269532 2.0625-.269532 1.40625-.003906 2.785157.363282 4 1.070313 3.828125 2.210937 5.136719 7.101563 2.929688 10.929687zm0 0"/><path d="m385.441406 301.054688c-1.503906-2.519532-4.226562-4.066407-7.160156-4.066407-2.9375 0-5.65625 1.546875-7.160156 4.066407l-20.417969 40.839843c-3.71875 7.433594-3.324219 16.261719 1.039063 23.335938 4.363281 7.074219 12.074218 11.386719 20.386718 11.402343h12.222656c8.316407 0 16.042969-4.308593 20.414063-11.386718 4.375-7.074219 4.769531-15.910156 1.050781-23.351563zm5.75 55.785156c-1.4375 2.375-4.023437 3.816406-6.800781 3.792968h-12.261719c-2.773437-.003906-5.347656-1.4375-6.804687-3.796874-1.453125-2.355469-1.585938-5.300782-.347657-7.78125l13.261719-26.535157 13.265625 26.535157c1.269532 2.476562 1.136719 5.4375-.351562 7.785156zm0 0"/><path d="m345.441406 413.054688c-1.503906-2.519532-4.226562-4.066407-7.160156-4.066407-2.9375 0-5.65625 1.546875-7.160156 4.066407l-20.417969 40.839843c-3.71875 7.433594-3.324219 16.261719 1.039063 23.335938 4.363281 7.074219 12.074218 11.386719 20.386718 11.402343h12.222656c8.316407 0 16.042969-4.308593 20.414063-11.386718 4.375-7.074219 4.769531-15.910156 1.050781-23.351563zm5.75 55.785156c-1.4375 2.375-4.023437 3.816406-6.800781 3.792968h-12.261719c-2.773437-.003906-5.347656-1.4375-6.804687-3.796874-1.453125-2.355469-1.585938-5.300782-.347657-7.78125l13.261719-26.535157 13.265625 26.535157c1.269532 2.476562 1.136719 5.4375-.351562 7.785156zm0 0"/></svg>