<?xml version="1.0" encoding="UTF-8"?>
<svg xmlns="http://www.w3.org/2000/svg" xmlns:xlink="http://www.w3.org/1999/xlink" width="50pt" height="50pt" viewBox="0 0 50 50" version="1.1">
<g id="surface1">
<path style=" stroke:none;fill-rule:nonzero;fill:rgb(62.745098%,50.588235%,36.078431%);fill-opacity:1;" d="M 10.832031 13.367188 L 47.5 13.367188 C 48.421875 13.367188 49.167969 14.113281 49.167969 15.03125 L 49.167969 40.03125 C 49.167969 40.953125 48.421875 41.699219 47.5 41.699219 L 10.832031 41.699219 C 9.914062 41.699219 9.167969 40.953125 9.167969 40.03125 L 9.167969 15.03125 C 9.167969 14.113281 9.914062 13.367188 10.832031 13.367188 Z M 10.832031 13.367188 "/>
<path style=" stroke:none;fill-rule:nonzero;fill:rgb(62.745098%,50.588235%,36.078431%);fill-opacity:1;" d="M 7.5 18.367188 L 9.167969 18.367188 L 9.167969 16.699219 C 9.167969 17.621094 8.421875 18.367188 7.5 18.367188 Z M 7.5 18.367188 "/>
<path style=" stroke:none;fill-rule:nonzero;fill:rgb(62.745098%,50.588235%,36.078431%);fill-opacity:1;" d="M 2.5 18.367188 C 1.578125 18.367188 0.832031 19.113281 0.832031 20.03125 L 0.832031 40.03125 C 0.832031 40.953125 1.578125 41.699219 2.5 41.699219 L 9.167969 41.699219 L 9.167969 18.367188 Z M 2.5 18.367188 "/>
<path style=" stroke:none;fill-rule:nonzero;fill:rgb(100%,89.411765%,46.666667%);fill-opacity:1;" d="M 2.5 13.367188 L 7.5 13.367188 C 8.421875 13.367188 9.167969 14.113281 9.167969 15.03125 L 9.167969 16.699219 C 9.167969 17.621094 8.421875 18.367188 7.5 18.367188 L 2.5 18.367188 C 1.578125 18.367188 0.832031 17.621094 0.832031 16.699219 L 0.832031 15.03125 C 0.832031 14.113281 1.578125 13.367188 2.5 13.367188 Z M 2.5 13.367188 "/>
<path style=" stroke:none;fill-rule:nonzero;fill:rgb(62.745098%,50.588235%,36.078431%);fill-opacity:1;" d="M 17.5 33.367188 C 17.5 39.808594 22.722656 45.03125 29.167969 45.03125 C 35.609375 45.03125 40.832031 39.808594 40.832031 33.367188 C 40.832031 26.921875 35.609375 21.699219 29.167969 21.699219 C 22.722656 21.699219 17.5 26.921875 17.5 33.367188 Z M 29.167969 25.03125 C 33.769531 25.03125 37.5 28.761719 37.5 33.367188 C 37.5 37.96875 33.769531 41.699219 29.167969 41.699219 C 24.5625 41.699219 20.832031 37.96875 20.832031 33.367188 C 20.839844 28.765625 24.566406 25.039062 29.167969 25.03125 Z M 29.167969 25.03125 "/>
<path style=" stroke:none;fill-rule:nonzero;fill:rgb(100%,89.411765%,46.666667%);fill-opacity:1;" d="M 37.5 33.367188 C 37.5 37.96875 33.769531 41.699219 29.167969 41.699219 C 24.5625 41.699219 20.832031 37.96875 20.832031 33.367188 C 20.832031 28.761719 24.5625 25.03125 29.167969 25.03125 C 33.769531 25.03125 37.5 28.761719 37.5 33.367188 Z M 37.5 33.367188 "/>
<path style=" stroke:none;fill-rule:nonzero;fill:rgb(92.941176%,10.980392%,14.117647%);fill-opacity:1;" d="M 23.332031 15.867188 L 35 15.867188 L 35 19.199219 L 23.332031 19.199219 Z M 23.332031 15.867188 "/>
<path style=" stroke:none;fill-rule:nonzero;fill:rgb(62.745098%,50.588235%,36.078431%);fill-opacity:1;" d="M 12.5 10.03125 L 17.5 10.03125 L 17.5 13.367188 L 12.5 13.367188 Z M 12.5 10.03125 "/>
<path style=" stroke:none;fill-rule:nonzero;fill:rgb(100%,89.411765%,46.666667%);fill-opacity:1;" d="M 34.464844 5.03125 L 23.867188 5.03125 C 23.070312 5.03125 22.386719 5.59375 22.230469 6.371094 L 20.832031 13.367188 L 37.5 13.367188 L 36.101562 6.371094 C 35.945312 5.59375 35.261719 5.03125 34.464844 5.03125 Z M 34.464844 5.03125 "/>
<path style=" stroke:none;fill-rule:nonzero;fill:rgb(65.490196%,66.27451%,67.45098%);fill-opacity:1;" d="M 43.332031 15.867188 L 46.667969 15.867188 L 46.667969 19.199219 L 43.332031 19.199219 Z M 43.332031 15.867188 "/>
<path style=" stroke:none;fill-rule:nonzero;fill:rgb(13.72549%,12.156863%,12.54902%);fill-opacity:1;" d="M 9.167969 42.53125 L 2.5 42.53125 C 1.121094 42.53125 0 41.410156 0 40.03125 L 0 20.03125 C 0 18.652344 1.121094 17.53125 2.5 17.53125 L 9.167969 17.53125 C 9.625 17.53125 10 17.90625 10 18.367188 L 10 41.699219 C 10 42.160156 9.625 42.53125 9.167969 42.53125 Z M 2.5 19.199219 C 2.039062 19.199219 1.667969 19.574219 1.667969 20.03125 L 1.667969 40.03125 C 1.667969 40.492188 2.039062 40.867188 2.5 40.867188 L 8.332031 40.867188 L 8.332031 19.199219 Z M 2.5 19.199219 "/>
<path style=" stroke:none;fill-rule:nonzero;fill:rgb(13.72549%,12.156863%,12.54902%);fill-opacity:1;" d="M 7.5 19.199219 L 2.5 19.199219 C 1.121094 19.199219 0 18.078125 0 16.699219 L 0 15.03125 C 0 13.652344 1.121094 12.53125 2.5 12.53125 L 7.5 12.53125 C 8.878906 12.53125 10 13.652344 10 15.03125 L 10 16.699219 C 10 18.078125 8.878906 19.199219 7.5 19.199219 Z M 2.5 14.199219 C 2.039062 14.199219 1.667969 14.574219 1.667969 15.03125 L 1.667969 16.699219 C 1.667969 17.160156 2.039062 17.53125 2.5 17.53125 L 7.5 17.53125 C 7.960938 17.53125 8.332031 17.160156 8.332031 16.699219 L 8.332031 15.03125 C 8.332031 14.574219 7.960938 14.199219 7.5 14.199219 Z M 2.5 14.199219 "/>
<path style=" stroke:none;fill-rule:nonzero;fill:rgb(13.72549%,12.156863%,12.54902%);fill-opacity:1;" d="M 47.503906 42.53125 L 37.5 42.53125 L 37.5 40.867188 L 47.5 40.867188 C 47.957031 40.867188 48.332031 40.488281 48.332031 40.03125 L 48.332031 15.03125 C 48.332031 14.574219 47.957031 14.199219 47.496094 14.199219 L 10.832031 14.199219 C 10.375 14.199219 10 14.574219 10 15.035156 L 10 40.867188 L 20.832031 40.867188 L 20.832031 42.53125 L 9.167969 42.53125 C 8.707031 42.53125 8.332031 42.160156 8.332031 41.699219 L 8.332031 15.03125 C 8.335938 13.65625 9.457031 12.535156 10.832031 12.53125 L 47.5 12.53125 C 48.875 12.535156 49.996094 13.65625 50 15.03125 L 50 40.03125 C 49.996094 41.410156 48.875 42.527344 47.503906 42.53125 Z M 47.503906 42.53125 "/>
<path style=" stroke:none;fill-rule:nonzero;fill:rgb(13.72549%,12.156863%,12.54902%);fill-opacity:1;" d="M 29.167969 45.867188 C 22.273438 45.867188 16.667969 40.257812 16.667969 33.367188 C 16.667969 26.472656 22.273438 20.867188 29.167969 20.867188 C 36.058594 20.867188 41.667969 26.472656 41.667969 33.367188 C 41.667969 40.257812 36.058594 45.867188 29.167969 45.867188 Z M 29.167969 22.53125 C 23.191406 22.53125 18.332031 27.390625 18.332031 33.367188 C 18.332031 39.339844 23.191406 44.199219 29.167969 44.199219 C 35.140625 44.199219 40 39.339844 40 33.367188 C 40 27.390625 35.140625 22.53125 29.167969 22.53125 Z M 29.167969 22.53125 "/>
<path style=" stroke:none;fill-rule:nonzero;fill:rgb(13.72549%,12.156863%,12.54902%);fill-opacity:1;" d="M 29.167969 42.53125 C 24.113281 42.53125 20 38.421875 20 33.367188 C 20 28.3125 24.113281 24.199219 29.167969 24.199219 C 34.222656 24.199219 38.332031 28.3125 38.332031 33.367188 C 38.332031 38.421875 34.222656 42.53125 29.167969 42.53125 Z M 29.167969 25.867188 C 25.03125 25.867188 21.667969 29.230469 21.667969 33.367188 C 21.667969 37.5 25.03125 40.867188 29.167969 40.867188 C 33.300781 40.867188 36.667969 37.5 36.667969 33.367188 C 36.667969 29.230469 33.300781 25.867188 29.167969 25.867188 Z M 29.167969 25.867188 "/>
<path style=" stroke:none;fill-rule:nonzero;fill:rgb(13.72549%,12.156863%,12.54902%);fill-opacity:1;" d="M 35 20.03125 L 23.332031 20.03125 C 22.875 20.03125 22.5 19.660156 22.5 19.199219 L 22.5 15.867188 C 22.5 15.40625 22.875 15.03125 23.332031 15.03125 L 35 15.03125 C 35.460938 15.03125 35.832031 15.40625 35.832031 15.867188 L 35.832031 19.199219 C 35.832031 19.660156 35.460938 20.03125 35 20.03125 Z M 24.167969 18.367188 L 34.167969 18.367188 L 34.167969 16.699219 L 24.167969 16.699219 Z M 24.167969 18.367188 "/>
<path style=" stroke:none;fill-rule:nonzero;fill:rgb(13.72549%,12.156863%,12.54902%);fill-opacity:1;" d="M 17.5 14.199219 L 12.5 14.199219 C 12.039062 14.199219 11.667969 13.824219 11.667969 13.367188 L 11.667969 10.03125 C 11.667969 9.570312 12.039062 9.199219 12.5 9.199219 L 17.5 9.199219 C 17.960938 9.199219 18.332031 9.570312 18.332031 10.03125 L 18.332031 13.367188 C 18.332031 13.824219 17.960938 14.199219 17.5 14.199219 Z M 13.332031 12.53125 L 16.667969 12.53125 L 16.667969 10.867188 L 13.332031 10.867188 Z M 13.332031 12.53125 "/>
<path style=" stroke:none;fill-rule:nonzero;fill:rgb(13.72549%,12.156863%,12.54902%);fill-opacity:1;" d="M 37.5 14.199219 L 20.832031 14.199219 C 20.582031 14.199219 20.347656 14.085938 20.1875 13.894531 C 20.03125 13.703125 19.96875 13.445312 20.015625 13.203125 L 21.414062 6.207031 C 21.648438 5.042969 22.679688 4.199219 23.867188 4.199219 L 34.46875 4.199219 C 35.65625 4.199219 36.6875 5.042969 36.917969 6.207031 L 38.316406 13.203125 C 38.367188 13.445312 38.300781 13.703125 38.144531 13.894531 C 37.984375 14.085938 37.75 14.199219 37.5 14.199219 Z M 21.851562 12.53125 L 36.484375 12.53125 L 35.285156 6.535156 C 35.207031 6.148438 34.863281 5.867188 34.46875 5.867188 L 23.867188 5.867188 C 23.46875 5.867188 23.125 6.148438 23.046875 6.535156 Z M 21.851562 12.53125 "/>
<path style=" stroke:none;fill-rule:nonzero;fill:rgb(13.72549%,12.156863%,12.54902%);fill-opacity:1;" d="M 46.667969 20.03125 L 43.332031 20.03125 C 42.871094 20.03125 42.5 19.660156 42.5 19.199219 L 42.5 15.867188 C 42.5 15.40625 42.871094 15.03125 43.332031 15.03125 L 46.667969 15.03125 C 47.128906 15.03125 47.5 15.40625 47.5 15.867188 L 47.5 19.199219 C 47.5 19.660156 47.128906 20.03125 46.667969 20.03125 Z M 44.167969 18.367188 L 45.832031 18.367188 L 45.832031 16.699219 L 44.167969 16.699219 Z M 44.167969 18.367188 "/>
</g>
</svg>
