<?xml version="1.0" encoding="UTF-8"?>
<svg xmlns="http://www.w3.org/2000/svg" xmlns:xlink="http://www.w3.org/1999/xlink" width="40pt" height="40pt" viewBox="0 0 40 40" version="1.1">
<g id="surface1">
<path style=" stroke:none;fill-rule:nonzero;fill:rgb(62.745098%,50.588235%,36.078431%);fill-opacity:1;" d="M 8.597656 10.609375 L 37.699219 10.609375 C 38.429688 10.609375 39.023438 11.199219 39.023438 11.929688 L 39.023438 31.769531 C 39.023438 32.503906 38.429688 33.09375 37.699219 33.09375 L 8.597656 33.09375 C 7.867188 33.09375 7.277344 32.503906 7.277344 31.769531 L 7.277344 11.929688 C 7.277344 11.199219 7.867188 10.609375 8.597656 10.609375 Z M 8.597656 10.609375 "/>
<path style=" stroke:none;fill-rule:nonzero;fill:rgb(62.745098%,50.588235%,36.078431%);fill-opacity:1;" d="M 5.953125 14.578125 L 7.277344 14.578125 L 7.277344 13.253906 C 7.277344 13.984375 6.683594 14.578125 5.953125 14.578125 Z M 5.953125 14.578125 "/>
<path style=" stroke:none;fill-rule:nonzero;fill:rgb(62.745098%,50.588235%,36.078431%);fill-opacity:1;" d="M 1.984375 14.578125 C 1.253906 14.578125 0.660156 15.167969 0.660156 15.898438 L 0.660156 31.769531 C 0.660156 32.503906 1.253906 33.09375 1.984375 33.09375 L 7.277344 33.09375 L 7.277344 14.578125 Z M 1.984375 14.578125 "/>
<path style=" stroke:none;fill-rule:nonzero;fill:rgb(100%,89.411765%,46.666667%);fill-opacity:1;" d="M 1.984375 10.609375 L 5.953125 10.609375 C 6.683594 10.609375 7.277344 11.199219 7.277344 11.929688 L 7.277344 13.253906 C 7.277344 13.984375 6.683594 14.578125 5.953125 14.578125 L 1.984375 14.578125 C 1.253906 14.578125 0.660156 13.984375 0.660156 13.253906 L 0.660156 11.929688 C 0.660156 11.199219 1.253906 10.609375 1.984375 10.609375 Z M 1.984375 10.609375 "/>
<path style=" stroke:none;fill-rule:nonzero;fill:rgb(62.745098%,50.588235%,36.078431%);fill-opacity:1;" d="M 13.890625 26.480469 C 13.890625 31.59375 18.035156 35.738281 23.148438 35.738281 C 28.261719 35.738281 32.40625 31.59375 32.40625 26.480469 C 32.40625 21.367188 28.261719 17.222656 23.148438 17.222656 C 18.035156 17.222656 13.890625 21.367188 13.890625 26.480469 Z M 23.148438 19.867188 C 26.800781 19.867188 29.761719 22.828125 29.761719 26.480469 C 29.761719 30.132812 26.800781 33.09375 23.148438 33.09375 C 19.492188 33.09375 16.535156 30.132812 16.535156 26.480469 C 16.539062 22.828125 19.496094 19.871094 23.148438 19.867188 Z M 23.148438 19.867188 "/>
<path style=" stroke:none;fill-rule:nonzero;fill:rgb(100%,89.411765%,46.666667%);fill-opacity:1;" d="M 29.761719 26.480469 C 29.761719 30.132812 26.800781 33.09375 23.148438 33.09375 C 19.492188 33.09375 16.535156 30.132812 16.535156 26.480469 C 16.535156 22.828125 19.492188 19.867188 23.148438 19.867188 C 26.800781 19.867188 29.761719 22.828125 29.761719 26.480469 Z M 29.761719 26.480469 "/>
<path style=" stroke:none;fill-rule:nonzero;fill:rgb(92.941176%,10.980392%,14.117647%);fill-opacity:1;" d="M 18.515625 12.59375 L 27.777344 12.59375 L 27.777344 15.238281 L 18.515625 15.238281 Z M 18.515625 12.59375 "/>
<path style=" stroke:none;fill-rule:nonzero;fill:rgb(62.745098%,50.588235%,36.078431%);fill-opacity:1;" d="M 9.921875 7.960938 L 13.890625 7.960938 L 13.890625 10.609375 L 9.921875 10.609375 Z M 9.921875 7.960938 "/>
<path style=" stroke:none;fill-rule:nonzero;fill:rgb(100%,89.411765%,46.666667%);fill-opacity:1;" d="M 27.351562 3.992188 L 18.941406 3.992188 C 18.308594 3.992188 17.765625 4.441406 17.644531 5.054688 L 16.535156 10.609375 L 29.761719 10.609375 L 28.652344 5.054688 C 28.527344 4.441406 27.984375 3.992188 27.351562 3.992188 Z M 27.351562 3.992188 "/>
<path style=" stroke:none;fill-rule:nonzero;fill:rgb(65.490196%,66.27451%,67.45098%);fill-opacity:1;" d="M 34.390625 12.59375 L 37.039062 12.59375 L 37.039062 15.238281 L 34.390625 15.238281 Z M 34.390625 12.59375 "/>
<path style=" stroke:none;fill-rule:nonzero;fill:rgb(13.72549%,12.156863%,12.54902%);fill-opacity:1;" d="M 7.277344 33.753906 L 1.984375 33.753906 C 0.890625 33.753906 0 32.863281 0 31.769531 L 0 15.898438 C 0 14.804688 0.890625 13.914062 1.984375 13.914062 L 7.277344 13.914062 C 7.640625 13.914062 7.9375 14.210938 7.9375 14.578125 L 7.9375 33.09375 C 7.9375 33.460938 7.640625 33.753906 7.277344 33.753906 Z M 1.984375 15.238281 C 1.617188 15.238281 1.324219 15.535156 1.324219 15.898438 L 1.324219 31.769531 C 1.324219 32.136719 1.617188 32.433594 1.984375 32.433594 L 6.613281 32.433594 L 6.613281 15.238281 Z M 1.984375 15.238281 "/>
<path style=" stroke:none;fill-rule:nonzero;fill:rgb(13.72549%,12.156863%,12.54902%);fill-opacity:1;" d="M 5.953125 15.238281 L 1.984375 15.238281 C 0.890625 15.238281 0 14.347656 0 13.253906 L 0 11.929688 C 0 10.835938 0.890625 9.945312 1.984375 9.945312 L 5.953125 9.945312 C 7.046875 9.945312 7.9375 10.835938 7.9375 11.929688 L 7.9375 13.253906 C 7.9375 14.347656 7.046875 15.238281 5.953125 15.238281 Z M 1.984375 11.269531 C 1.617188 11.269531 1.324219 11.566406 1.324219 11.929688 L 1.324219 13.253906 C 1.324219 13.621094 1.617188 13.914062 1.984375 13.914062 L 5.953125 13.914062 C 6.316406 13.914062 6.613281 13.621094 6.613281 13.253906 L 6.613281 11.929688 C 6.613281 11.566406 6.316406 11.269531 5.953125 11.269531 Z M 1.984375 11.269531 "/>
<path style=" stroke:none;fill-rule:nonzero;fill:rgb(13.72549%,12.156863%,12.54902%);fill-opacity:1;" d="M 37.703125 33.753906 L 29.761719 33.753906 L 29.761719 32.433594 L 37.699219 32.433594 C 38.0625 32.433594 38.359375 32.132812 38.359375 31.769531 L 38.359375 11.929688 C 38.359375 11.566406 38.0625 11.269531 37.695312 11.269531 L 8.597656 11.269531 C 8.234375 11.269531 7.9375 11.566406 7.9375 11.933594 L 7.9375 32.433594 L 16.535156 32.433594 L 16.535156 33.753906 L 7.277344 33.753906 C 6.910156 33.753906 6.613281 33.460938 6.613281 33.09375 L 6.613281 11.929688 C 6.617188 10.839844 7.503906 9.949219 8.597656 9.945312 L 37.699219 9.945312 C 38.789062 9.949219 39.679688 10.839844 39.683594 11.929688 L 39.683594 31.769531 C 39.679688 32.863281 38.789062 33.75 37.703125 33.753906 Z M 37.703125 33.753906 "/>
<path style=" stroke:none;fill-rule:nonzero;fill:rgb(13.72549%,12.156863%,12.54902%);fill-opacity:1;" d="M 23.148438 36.402344 C 17.675781 36.402344 13.230469 31.949219 13.230469 26.480469 C 13.230469 21.011719 17.675781 16.5625 23.148438 16.5625 C 28.617188 16.5625 33.070312 21.011719 33.070312 26.480469 C 33.070312 31.949219 28.617188 36.402344 23.148438 36.402344 Z M 23.148438 17.882812 C 18.40625 17.882812 14.550781 21.738281 14.550781 26.480469 C 14.550781 31.222656 18.40625 35.078125 23.148438 35.078125 C 27.890625 35.078125 31.746094 31.222656 31.746094 26.480469 C 31.746094 21.738281 27.890625 17.882812 23.148438 17.882812 Z M 23.148438 17.882812 "/>
<path style=" stroke:none;fill-rule:nonzero;fill:rgb(13.72549%,12.156863%,12.54902%);fill-opacity:1;" d="M 23.148438 33.753906 C 19.136719 33.753906 15.871094 30.492188 15.871094 26.480469 C 15.871094 22.46875 19.136719 19.207031 23.148438 19.207031 C 27.160156 19.207031 30.421875 22.46875 30.421875 26.480469 C 30.421875 30.492188 27.160156 33.753906 23.148438 33.753906 Z M 23.148438 20.53125 C 19.867188 20.53125 17.195312 23.199219 17.195312 26.480469 C 17.195312 29.761719 19.867188 32.433594 23.148438 32.433594 C 26.429688 32.433594 29.101562 29.761719 29.101562 26.480469 C 29.101562 23.199219 26.429688 20.53125 23.148438 20.53125 Z M 23.148438 20.53125 "/>
<path style=" stroke:none;fill-rule:nonzero;fill:rgb(13.72549%,12.156863%,12.54902%);fill-opacity:1;" d="M 27.777344 15.898438 L 18.515625 15.898438 C 18.15625 15.898438 17.855469 15.601562 17.855469 15.238281 L 17.855469 12.59375 C 17.855469 12.226562 18.15625 11.929688 18.515625 11.929688 L 27.777344 11.929688 C 28.144531 11.929688 28.4375 12.226562 28.4375 12.59375 L 28.4375 15.238281 C 28.4375 15.601562 28.144531 15.898438 27.777344 15.898438 Z M 19.179688 14.578125 L 27.117188 14.578125 L 27.117188 13.253906 L 19.179688 13.253906 Z M 19.179688 14.578125 "/>
<path style=" stroke:none;fill-rule:nonzero;fill:rgb(13.72549%,12.156863%,12.54902%);fill-opacity:1;" d="M 13.890625 11.269531 L 9.921875 11.269531 C 9.554688 11.269531 9.261719 10.972656 9.261719 10.609375 L 9.261719 7.960938 C 9.261719 7.59375 9.554688 7.300781 9.921875 7.300781 L 13.890625 7.300781 C 14.253906 7.300781 14.550781 7.59375 14.550781 7.960938 L 14.550781 10.609375 C 14.550781 10.972656 14.253906 11.269531 13.890625 11.269531 Z M 10.582031 9.945312 L 13.230469 9.945312 L 13.230469 8.625 L 10.582031 8.625 Z M 10.582031 9.945312 "/>
<path style=" stroke:none;fill-rule:nonzero;fill:rgb(13.72549%,12.156863%,12.54902%);fill-opacity:1;" d="M 29.761719 11.269531 L 16.535156 11.269531 C 16.335938 11.269531 16.148438 11.179688 16.023438 11.027344 C 15.898438 10.875 15.847656 10.671875 15.886719 10.480469 L 16.996094 4.925781 C 17.179688 4.003906 18 3.332031 18.941406 3.332031 L 27.355469 3.332031 C 28.296875 3.332031 29.117188 4.003906 29.300781 4.925781 L 30.410156 10.480469 C 30.449219 10.671875 30.398438 10.875 30.273438 11.027344 C 30.144531 11.179688 29.960938 11.269531 29.761719 11.269531 Z M 17.34375 9.945312 L 28.957031 9.945312 L 28.003906 5.1875 C 27.941406 4.878906 27.667969 4.65625 27.355469 4.65625 L 18.941406 4.65625 C 18.625 4.65625 18.351562 4.878906 18.292969 5.1875 Z M 17.34375 9.945312 "/>
<path style=" stroke:none;fill-rule:nonzero;fill:rgb(13.72549%,12.156863%,12.54902%);fill-opacity:1;" d="M 37.039062 15.898438 L 34.390625 15.898438 C 34.023438 15.898438 33.730469 15.601562 33.730469 15.238281 L 33.730469 12.59375 C 33.730469 12.226562 34.023438 11.929688 34.390625 11.929688 L 37.039062 11.929688 C 37.402344 11.929688 37.699219 12.226562 37.699219 12.59375 L 37.699219 15.238281 C 37.699219 15.601562 37.402344 15.898438 37.039062 15.898438 Z M 35.054688 14.578125 L 36.375 14.578125 L 36.375 13.253906 L 35.054688 13.253906 Z M 35.054688 14.578125 "/>
</g>
</svg>
