<svg height="599pt" viewBox="0 0 599 599.17864" width="599pt" xmlns="http://www.w3.org/2000/svg"><path d="m549.332031.0078125h-417.621093c-28.054688-.4453125-51.1875 21.8828125-51.730469 49.9296875v449.378906h-69.90625c-5.511719 0-9.9843752 4.472656-9.9843752 9.988282v39.941406c.0351562 27.566406 22.3671872 49.898437 49.9296872 49.933594h419.421875c27.5625-.035157 49.894532-22.367188 49.929688-49.933594v-89.875c0-5.515625-4.46875-9.984375-9.984375-9.984375s-9.988281 4.46875-9.988281 9.984375v89.875c0 16.546875-13.414063 29.960937-29.957032 29.960937-16.546875 0-29.960937-13.414062-29.960937-29.960937v-39.941406c0-5.515626-4.46875-9.988282-9.984375-9.988282h-329.542969v-449.378906c.539063-17.015625 14.730469-30.40625 31.757813-29.957031h377.933593c-6.609375 8.589843-10.207031 19.117187-10.246093 29.957031v89.875c0 5.515625 4.472656 9.988281 9.988281 9.988281s9.984375-4.472656 9.984375-9.988281v-39.945312h69.902344c5.515624 0 9.988281-4.46875 9.988281-9.984376v-39.945312c-.035157-27.558594-22.367188-49.8984375-49.929688-49.9296875zm-499.3125 579.1992185c-16.542969 0-29.957031-13.414062-29.957031-29.960937v-29.957032h399.449219v29.957032c.039062 10.839844 3.636719 21.367187 10.242187 29.960937zm529.269531-499.3125h-59.917968v-29.957031c0-16.542969 13.414062-29.957031 29.960937-29.957031 16.542969 0 29.957031 13.414062 29.957031 29.957031zm0 0"/><path d="m119.921875 79.894531h319.558594v19.972657h-319.558594zm0 0"/><path d="m119.921875 119.839844h319.558594v19.972656h-319.558594zm0 0"/><path d="m596.324219 202.644531-39.941407-39.941406c-1.878906-1.855469-4.410156-2.902344-7.050781-2.917969h-219.699219c-5.511718 0-9.984374 4.472656-9.984374 9.988282v259.640624c0 5.515626 4.472656 9.984376 9.984374 9.984376h259.640626c5.515624 0 9.988281-4.46875 9.988281-9.984376v-219.699218c-.003907-1.304688-.269531-2.601563-.769531-3.8125-.5-1.21875-1.234376-2.324219-2.167969-3.257813zm-96.925781-22.886719v39.945313h-19.972657v-39.945313zm-39.945313 0v49.929688c0 5.515625 4.472656 9.988281 9.988281 9.988281h39.945313c5.515625 0 9.984375-4.472656 9.984375-9.988281v-49.929688h19.972656c5.515625 0 9.988281 4.472657 9.988281 9.988282v69.902344h-179.753906v-79.890626zm-119.832031 239.667969v-239.667969h9.984375v89.875c0 5.515626 4.472656 9.988282 9.988281 9.988282h199.722656c5.515625 0 9.988282-4.472656 9.988282-9.988282v-65.765624l9.984374 9.984374v205.574219zm0 0"/><path d="m559.316406 289.605469h-199.722656c-5.515625 0-9.988281 4.472656-9.988281 9.988281v99.859375c0 5.515625 4.472656 9.988281 9.988281 9.988281h199.722656c5.515625 0 9.988282-4.472656 9.988282-9.988281v-99.859375c0-5.515625-4.472657-9.988281-9.988282-9.988281zm-9.984375 99.863281h-179.753906v-79.890625h179.753906zm0 0"/><path d="m119.921875 159.785156h169.765625v19.972656h-169.765625zm0 0"/><path d="m119.921875 199.730469h169.765625v19.972656h-169.765625zm0 0"/><path d="m119.921875 239.675781h169.765625v19.972657h-169.765625zm0 0"/><path d="m119.921875 279.621094h169.765625v19.972656h-169.765625zm0 0"/><path d="m119.921875 319.566406h169.765625v19.972656h-169.765625zm0 0"/><path d="m119.921875 359.511719h169.765625v19.96875h-169.765625zm0 0"/><path d="m119.921875 399.453125h119.835937v19.972656h-119.835937zm0 0"/><path d="m249.746094 399.453125h39.941406v19.972656h-39.941406zm0 0"/><path d="m119.921875 439.398438h119.835937v19.972656h-119.835937zm0 0"/><path d="m249.746094 439.398438h39.941406v19.972656h-39.941406zm0 0"/></svg>